<svg id="svg8" height="512" viewBox="0 0 16.933333 16.933333" width="512" xmlns="http://www.w3.org/2000/svg" xmlns:svg="http://www.w3.org/2000/svg"><g id="layer2"><path id="path2751" d="m8.4686231.00000631c-.045694-.00031007-.0908881.01080256-.1307229.03310786l-7.143839 3.99708843c-.186342.1042612-.1793284.3738039.0118984.4688212l1.1754852.5840784v1.0022479h-.2635152c-.146102 0-.2655751.1174567-.2655751.2636124v2.381815c0 .1469562.1186732.2656733.2655751.2656733h1.0587105c.1461018 0 .2635152-.1195173.2635152-.2656733v-2.381815c0-.1453556-.1182133-.2636124-.2635152-.2636124h-.266095v-.7396655l1.7438502.8668155c-.1803061.2448983-.3688713.525925-.5249608.8554531-.4887856 1.0318746-.5907922 2.4085512.6815202 4.2002158.2202312.290209.6330768-.028106.4314433-.306512-1.1913132-1.6776082-1.0237953-2.8449551-.6345064-3.6668.2045331-.4317823.4753773-.7781248.7151059-1.0895885.1438109-.1868442.2073126-.2605716.3337858-.4502169.0633916-.0950225.1613888-.3011013.1627587-.3612956.0104973-.0110013.0439944-.0358083.0970873-.0646157.1112755-.0602142.3026202-.1267101.5513175-.1834938.4974043-.1135768 1.2087107-.1876343 1.9985869-.1876343.7898658 0 1.5022015.074018 1.9996053.1876343.248707.056814.445731.1273601.557007.1876247.0524.028406.07838.050212.08938.061514.0154.067416.06208.1987272.164307.3602653.08828.139573.199274.2809468.320348.4357437.242148.3095832.524012.6722794.728544 1.1040617.388939.8210946.556297 1.9891919-.635016 3.6668001-.204744.312494.231669.581448.429884.306512 1.2796-1.801916 1.174023-3.1648695.683598-4.2002149-.155999-.3293482-.342615-.6111651-.523411-.855973l3.446886-1.7129564c.191195-.095022.197684-.3645565.0114-.4688212l-7.1433197-3.99708834c-.0387949-.02170516-.0826891-.03280779-.1271131-.03310786zm-.0019997.56857489 6.5754736 3.6786828-3.089843 1.5367045c-.089089-.1154474-.175797-.2299245-.227861-.3121941-.065691-.1038545-.083188-.1657092-.083188-.1690198l.000999-1.495355c.000091-.1237993-.058691-.2318249-.127102-.3085831-.068496-.0768182-.149041-.1320114-.240269-.1814333-.182467-.0988234-.411985-.173421-.689269-.2367259-.554577-.1266302-1.2966986-.2010778-2.1189702-.2010778-.8222817 0-1.5644039.074418-2.1189711.2010778-.2772933.063315-.506813.1379026-.6892789.2367259-.091188.0494118-.1718174.104665-.2402585.1814333-.0684909.0767182-.1265933.1847838-.1265933.3085831v1.4932843c0 .003-.016397.067216-.082189.1710905-.053393.08432-.1358822.1926457-.22838.3116841l-2.0703979-1.0296444v-1.0766754zm1.9996056 3.0279283c.248707.056814.445731.1252898.557007.185554.0511.027706.07818.050812.08988.062514v.9474556c-.124725-.0537127-.31534-.1138469-.527533-.1622982-.554577-.1266304-1.2966929-.2010679-2.1189696-.2010679-.8222768 0-1.5644041.074418-2.118971.2010679-.212202.048411-.4010571.1072853-.5270306.1614782v-.9466346c.011798-.011803.038795-.034908.089888-.062515.111275-.060314.3057195-.1287704.5544167-.185554.4974044-.1135768 1.2118105-.1876343 2.0016914-.1876343.7898808 0 1.5022167.074018 1.9996211.1876343zm-8.0847443.3768095v.5174028l-.4898254-.2434578zm5.1633499 1.6044108c-.006.582168-.4831862 1.0684133-1.0757581 1.0684133h-.4433316c-.145292 0-.2629353.118258-.2635155.2636125v.1829734c-.5144222.054312-.888708.5071403-.8887129 1.0342955-.0000051.5612232.4272337 1.0394564.9863701 1.0394564.022597-.00001.041595.00008.064091-.002.1857554.510091.522861.9496541.9548541 1.2632691v.576327l-.077989-.07802c-.049993-.05032-.1181645-.07842-.1891152-.07802-.069191.000953-.1351821.029-.1839458.07802l-.7331836.732433c-1.2989889.111408-2.6433418.96301-3.2603607 2.458324-.042695.119359-.3162182.711599-.3162182 1.615273v.935562c0 .146156.1174145.265684.2635152.265684h12.1702666c.146101 0 .263515-.119528.263515-.265684v-.935562c0-.730573-.179496-1.288655-.328617-1.640599-.584962-1.410894-1.897079-2.314589-3.247441-2.434027l-.733704-.731393c-.0505-.05082-.119514-.07902-.191175-.07802-.06919.000953-.135182.029-.183946.07802l-.07598.07602v-.574267c.432053-.313615.768568-.7520977.954344-1.2622388.0225.002.0425.0005031.06508.0005291.551898 0 .986376-.4782235.986371-1.0394563-.000005-.5271552-.378171-.9804228-.888714-1.0342955v-.182974c-.00058-.1453545-.118221-.2636123-.263513-.2636123h-1.5547445c-.6436651 0-1.1862579-.4740197-1.2829509-1.1056225-.0195816-.1279076-.1285047-.2229078-.266325-.2248034-.1378134-.0018956-.2577261.1156475-.259156.2620024zm.3053699.8042807c.2765135.4120477.8131228.7934183 1.5030622.7934183h1.2891593v1.062722c0 1.2073864-.9755712 2.1724752-2.1758025 2.1724752-1.2032217 0-2.1752936-.9650888-2.1752936-2.1724752v-1.062722h.1777365c.6593533 0 1.1576676-.3923233 1.3811381-.7934183zm-5.4687198.2325951h.5291004v1.8520094h-.5291004zm3.3807447 1.0146508v.6088944c0 .1339317.01.2646728.028396.3933533-.2086523-.0340081-.3880438-.2365762-.3880387-.5044796.0000049-.2547905.1588792-.4493066.3596227-.4977681zm5.4092966 0c.195625.047212.359103.2429776.359103.4977681 0 .2679034-.178207.4703214-.387519.5044796.0188-.1286805.0284-.2594216.0284-.3933533zm-3.7631034 3.0971846c.3251372.138092.6825202.21296 1.0582009.21296.3756804 0 .7335732-.07592 1.05871-.21399v.806341l-1.05871 1.059101-1.0582009-1.058061zm-.7951952.76086 1.4803349 1.476751-.4195544.42023-1.4782656-1.479331zm3.7047116 0 .420075.41971-1.4761954 1.478821-.4221445-.42178zm.886653.700387c1.124752.109065 2.174094.814253 2.719891 1.94039.319408.665428.361683 1.2659.361683 1.60442v.67195h-1.851316s0-.528945 0-.793418c0-.149836-.119448-.268018-.269205-.265163-.146114.0028-.259896.118968-.259896.265163v.793418h-6.8777427s0-.528945 0-.793418c0-.150046-.1197569-.268096-.2697146-.265163-.1461135.0029-.2598956.118968-.2598956.265163v.793418h-1.8513263v-.67195c0-.495717.094187-.962018.2671348-1.388879.4656787-1.159925 1.534768-2.031822 2.8149591-2.154901l1.7572787 1.755866c.1031964.102625.2698646.102625.373061 0l.6071201-.605793.6076297.605793c.1031966.102625.2698645.102625.3730606 0z" font-variant-ligatures="normal" font-variant-position="normal" font-variant-caps="normal" font-variant-numeric="normal" font-variant-alternates="normal" font-feature-settings="normal" text-indent="0" text-align="start" text-decoration-line="none" text-decoration-style="solid" text-decoration-color="rgb(0,0,0)" text-transform="none" text-orientation="mixed" white-space="normal" shape-padding="0" isolation="auto" mix-blend-mode="normal" solid-color="rgb(0,0,0)" solid-opacity="1" vector-effect="none"/></g></svg>