<svg enable-background="new 0 0 512 512" viewBox="0 0 512 512" xmlns="http://www.w3.org/2000/svg"><g id="_x31_1_Freelancer"><g><path d="m397.755 201.131c-4.693 0-8.513-3.82-8.513-8.513 0-2.707-2.195-4.901-4.901-4.901-2.707 0-4.901 2.195-4.901 4.901 0 8.391 5.704 15.405 13.414 17.564v5.406c0 2.707 2.195 4.901 4.901 4.901 2.707 0 4.901-2.195 4.901-4.901v-5.406c7.709-2.159 13.412-9.173 13.412-17.564 0-9.439-7.172-17.231-16.35-18.212-.601-.263-1.266-.409-1.962-.409-4.693 0-8.513-3.82-8.513-8.515 0-4.693 3.82-8.513 8.513-8.513s8.51 3.82 8.51 8.513c0 2.707 2.195 4.901 4.901 4.901s4.901-2.195 4.901-4.901c0-8.391-5.703-15.405-13.412-17.564v-5.406c0-2.707-2.195-4.901-4.901-4.901-2.707 0-4.901 2.195-4.901 4.901v5.406c-7.71 2.159-13.414 9.173-13.414 17.564 0 9.439 7.175 17.231 16.353 18.212.601.263 1.266.409 1.962.409 4.693 0 8.51 3.82 8.51 8.515 0 4.693-3.817 8.513-8.51 8.513z"/><path d="m334.799 349.51c-2.68-.515-5.222 1.259-5.717 3.918l-8.075 43.26c-.498 2.661 1.256 5.222 3.918 5.717.304.057.608.084.905.084 2.314 0 4.372-1.644 4.813-4.001l8.075-43.26c.496-2.662-1.258-5.223-3.919-5.718z"/><path d="m339.171 326.076c-2.673-.515-5.22 1.256-5.717 3.918l-.998 5.349c-.498 2.661 1.256 5.222 3.918 5.717.304.057.608.084.905.084 2.314 0 4.372-1.644 4.813-4.001l.998-5.349c.497-2.662-1.258-5.223-3.919-5.718z"/><path d="m490.231 414.117h-5.533l20.108-108.262c2.353-12.674-6.334-23.197-18.988-23.197h-146.939c-12.043 0-23.221 9.403-25.452 21.407l-14.917 80.316h-14.28v-31.334c0-31.296-25.461-56.757-56.757-56.757h-27.488v-11.207c33.607-9.633 58.962-38.976 62.553-74.706h2.607c14.342 0 26.009-11.667 26.009-26.009 0-10.025-5.765-18.645-14.098-22.984v-28.364c0-45.966-37.396-83.363-83.363-83.363h-35.171c-47.711 0-83.36 49.188-83.36 93.165v18.562c-8.333 4.339-14.098 12.957-14.098 22.984 0 14.342 11.667 26.009 26.007 26.009h2.607c3.591 35.731 28.946 65.074 62.553 74.706v11.207h-27.488c-28.353 0-51.819 20.926-55.992 48.13h-16.155c-2.707 0-4.901 2.195-4.901 4.901v6.174h-3.628c-10.647 0-19.311 8.663-19.311 19.311 0 13.981 10.373 25.557 23.82 27.517 1.109 4.432 3.247 8.453 6.162 11.794h-32.971c-8.675 0-15.733 7.058-15.733 15.733v16.762c0 8.675 7.058 15.733 15.733 15.733h468.464c8.675 0 15.735-7.058 15.735-15.733v-16.762c0-8.676-7.06-15.733-15.735-15.733zm-167.164-108.262c1.347-7.261 8.589-13.395 15.812-13.395h146.938c6.532 0 10.576 4.996 9.348 11.605l-20.44 110.052c-87.109 0-115.883 0-171.768 0zm-30.08 108.262c-3.522 0-50.329 0-48.405 0-8.948 0-16.226-7.278-16.226-16.226 0-2.044 1.661-3.707 3.705-3.707h64.628zm-27.843-213.544h-2.163v-32.411h2.163c8.936 0 16.207 7.268 16.207 16.204 0 8.937-7.27 16.207-16.207 16.207zm-180.179-57.753c0-39.352 31.459-83.363 73.558-83.363h35.171c40.56 0 73.56 33 73.56 73.56v25.555c-.707-.057-5.263-.17-7.018-.213-1.831-1.948-4.411-3.181-7.289-3.181-13.175 0-25.811-6.251-33.802-16.724-.814-1.067-2.027-1.752-3.36-1.9-1.34-.146-2.668.258-3.693 1.122-13.407 11.286-30.442 17.502-47.967 17.502h-64.39c-2.943 0-5.598 1.223-7.507 3.181-5.286.125-1.982-.216-7.264.213v-15.752zm-14.099 41.546c0-8.936 7.268-16.204 16.204-16.204h2.163v32.411h-2.163c-8.936 0-16.204-7.27-16.204-16.207zm28.195 17.729v-36.473c.034-.354.312-.641.675-.641h64.389c18.198 0 35.927-5.921 50.446-16.762 9.827 10.573 23.834 16.762 38.375 16.762.114 0 .19.098.208.208v36.906c-.258 42.278-34.71 76.599-77.047 76.599s-76.788-34.32-77.046-76.599zm77.046 86.402c4.802 0 9.482-.493 14.074-1.247v18.832c0 7.761-6.313 14.077-14.074 14.077s-14.074-6.316-14.074-14.077v-18.832c4.593.754 9.272 1.247 14.074 1.247zm-51.365 17.595h27.489c.005 13.163 10.714 23.87 23.876 23.87s23.871-10.707 23.876-23.87h27.489c25.89 0 46.955 21.065 46.955 46.955v31.334h-42.367c-7.448 0-13.507 6.06-13.507 13.51 0 6.165 2.245 11.763 5.841 16.226h-106.45c4.372-5.011 7.043-11.54 7.043-18.698v-46.098c0-2.707-2.195-4.901-4.901-4.901h-41.389c4.067-21.769 23.113-38.328 46.045-38.328zm-90.183 68.714c0-5.243 4.265-9.508 9.508-9.508h3.628l-.002 26.869c-7.57-2.14-13.134-9.114-13.134-17.361zm22.939 20.613c0-1.908 0-43.016 0-41.197h57.686v41.197c0 10.31-8.388 18.698-18.698 18.698-.65 0-21.455 0-20.29 0-10.31 0-18.698-8.388-18.698-18.698zm438.665 51.193c0 3.269-2.661 5.93-5.933 5.93h-468.463c-3.269 0-5.93-2.661-5.93-5.93v-16.762c0-3.269 2.661-5.93 5.93-5.93h468.464c3.272 0 5.933 2.661 5.933 5.93v16.762z"/><path d="m397.312 373.262c10.753 0 20.732-8.393 22.724-19.105 2.058-11.099-5.498-20.842-17.123-20.842-10.722 0-20.673 8.369-22.659 19.052-2.07 11.15 5.484 20.895 17.058 20.895zm-7.419-19.105c1.11-5.983 7.072-11.04 13.019-11.04 5.271 0 8.469 3.954 7.484 9.25-1.115 6.012-7.108 11.093-13.084 11.093-5.231 0-8.411-3.974-7.419-9.303z"/><path d="m199.953 241.744c1.915-1.915 1.915-5.019 0-6.931-1.915-1.915-5.016-1.915-6.931 0-9.332 9.332-24.451 9.334-33.826-.036-1.915-1.915-5.016-1.915-6.931 0s-1.915 5.019 0 6.931c13.132 13.131 34.462 13.267 47.688.036z"/><path d="m142.363 187.971c-2.707 0-4.901 2.195-4.901 4.901v4.999c0 2.707 2.195 4.901 4.901 4.901 2.707 0 4.901-2.195 4.901-4.901v-4.999c.001-2.707-2.194-4.901-4.901-4.901z"/><path d="m209.854 202.773c2.707 0 4.901-2.195 4.901-4.901v-4.999c0-2.707-2.195-4.901-4.901-4.901-2.707 0-4.901 2.195-4.901 4.901v4.999c0 2.706 2.194 4.901 4.901 4.901z"/><path d="m403.441 111.086c-37.524-3.143-70.506 24.712-73.651 62.276-3.139 37.499 24.768 70.516 62.276 73.651 37.47 3.146 70.505-24.677 73.651-62.276 3.133-37.477-24.803-70.515-62.276-73.651zm52.507 72.833c-2.68 32.013-30.799 56.025-63.063 53.325-32.104-2.684-56.015-30.957-53.325-63.063 2.728-32.631 31.449-55.971 63.063-53.325 32.087 2.682 56.008 30.972 53.325 63.063z"/></g></g><g id="Layer_1"/></svg>