<svg id="Capa_1" enable-background="new 0 0 512.003 512.003" height="512" viewBox="0 0 512.003 512.003" width="512" xmlns="http://www.w3.org/2000/svg"><g><g><path d="m107.355 297.292c0 22.767 18.523 41.29 41.29 41.29s41.29-18.523 41.29-41.29v-8.258h-82.581v8.258zm64.652 8.258c-3.411 9.612-12.594 16.516-23.362 16.516s-19.951-6.904-23.362-16.516z"/><path d="m123.871 256.001h16.516c0-18.217-14.815-33.032-33.032-33.032s-33.032 14.815-33.032 33.032h16.516c0-9.109 7.407-16.516 16.516-16.516s16.516 7.408 16.516 16.516z"/><path d="m189.935 239.485c9.109 0 16.516 7.407 16.516 16.516h16.516c0-18.217-14.815-33.032-33.032-33.032s-33.032 14.815-33.032 33.032h16.516c0-9.108 7.408-16.516 16.516-16.516z"/><circle cx="148.645" cy="99.098" r="8.258"/><circle cx="214.71" cy="123.872" r="8.258"/><circle cx="181.677" cy="107.356" r="8.258"/><circle cx="82.581" cy="123.872" r="8.258"/><circle cx="115.613" cy="107.356" r="8.258"/><path d="m495.484 247.743h-16.516v-67.625c2.626.933 5.376 1.569 8.258 1.569 5.682 0 11.231-1.974 15.624-5.558 5.145-4.17 8.341-10.1 9.018-16.681.685-6.59-1.239-13.048-5.781-18.581l-122.805-132.186c-5.128-5.516-12.395-8.679-19.927-8.679s-14.798 3.163-19.927 8.687l-91.202 98.164c-6.507-14.278-20.835-24.27-37.516-24.27-.058 0-.124 0-.182 0-2.486-3.303-5.45-6.127-8.721-8.514.388-2.692.644-5.368.644-8.002 0-31.876-25.93-57.806-57.806-57.806s-57.806 25.929-57.806 57.805c0 2.626.256 5.31.644 8.002-3.27 2.387-6.243 5.211-8.729 8.514-.058 0-.116 0-.173 0-22.767 0-41.29 18.523-41.29 41.29 0 3.311.52 6.524 1.263 9.662-16.756 20.579-26.038 46.253-26.038 72.919v41.29c0 7.416-2.568 10.62-6.45 15.467-4.484 5.6-10.066 12.578-10.066 25.782 0 13.221 5.582 20.191 10.067 25.798 3.881 4.856 6.45 8.06 6.45 15.492s-2.568 10.636-6.45 15.492c-4.485 5.608-10.067 12.594-10.067 25.816 0 4.03.512 7.655 1.553 11.099 6.97 23.015 27.549 38.474 51.2 38.474h40.654c2.031 6.07 5.161 11.751 9.53 16.607 1.437 1.594 2.948 3.113 4.426 4.658v69.574h162.254 2.899 41.29c13.659 0 24.774-11.115 24.774-24.774v-16.516c0-13.659-11.115-24.774-24.774-24.774h181.677v-148.646c9.109 0 16.516-7.407 16.516-16.516v-16.516c.001-9.109-7.407-16.517-16.515-16.517zm-66.065 0v-66.065h-132.129v66.065h-16.516v-41.29c0-14.245-2.634-28.218-7.63-41.29h187.921l1.387 1.47v81.111h-33.033zm-115.613 0v-49.548h41.29v49.548zm57.807-49.548h41.29v49.548h-41.29zm-49.796 150.652 14.955-59.813h14.196l-34.411 82.581h-22.024l-34.403-82.581h14.196l14.955 59.813 16.021-4.005-13.948-55.808h28.391l-13.948 55.8zm43.602-51.555h80.516v132.129h-16.516v-99.097h-77.766zm47.484 132.129h-49.548v-82.581h49.548zm-115.613 9.29c-2.139-.611-4.344-1.032-6.631-1.032-9.249 0-17.557 5.137-21.694 13.411l-1.255 2.519c-13.048-1.503-25.344-5.401-36.476-11.247v-6.268c0-5.087-.628-10.05-1.544-14.931h12.329c13.741 0 27.813-6.202 38.796-16.186.173 8.952 7.482 16.186 16.475 16.186zm-152.171 15.244c-10.752-8.043-20.802-17.119-29.919-27.243-5.054-5.615-7.845-12.891-7.845-20.455v-4.046c0-16.871 13.725-30.596 30.596-30.596 12.817 0 24.37 8.093 28.746 20.133 4.831 13.287 11.801 25.311 20.439 35.757-6.012 15.872-21.215 26.69-38.491 26.69-1.197 0-2.353-.132-3.526-.24zm102.392-152.253 32.413 77.791c-7.639 14.501-23.346 25.154-37.913 25.154h-17.309c-6.185-14.666-16.566-27.285-30.092-36.154 29.324-8.746 51.034-35.13 52.901-66.791zm-16.285-4.41c0 31.868-25.939 57.806-57.806 57.806h-23.189-9.844-16.516c-31.876 0-57.806-25.939-57.806-57.806v-62.885c0-22.09 12.404-41.835 31.959-51.464l11.636 8.729c12.717 9.53 28.474 14.782 44.362 14.782h77.205v90.838zm-49.004 88.815c-1.007-2.766-2.329-5.351-3.799-7.829 20.645 10.058 34.23 30.191 35.931 53.009-14.311-11.586-25.525-27.02-32.132-45.18zm115.068 18.54v-16.517h16.516v16.516h-16.516zm-16.037-256 82.102-87.057 82.126 87.057zm74.273-128.711c4.03-4.335 11.627-4.335 15.657 0l122.451 131.766c1.387 1.709 2.031 3.848 1.809 6.045-.223 2.197-1.288 4.162-3.006 5.558-3.427 2.775-8.547 2.56-12.016-1.66l-117.066-124.135-100.765 106.859c-2.395-3.749-5.021-7.358-7.853-10.835.479-2.023.793-4.071.966-6.169zm-248.171 46.13c0-22.767 18.523-41.29 41.29-41.29s41.29 18.523 41.29 41.29c0 .297-.05.603-.058.9-2.676-.562-5.409-.9-8.2-.9-2.362 0-4.781.248-7.3.751-14.584-11.677-36.881-11.677-51.456 0-2.527-.504-4.947-.751-7.308-.751-2.783 0-5.525.339-8.2.9-.009-.297-.058-.603-.058-.9zm-24.774 33.032c.818 0 1.61.14 2.395.248l6.408.851 2.742-4.872c4.418-7.862 12.651-12.742 21.487-12.742 2.155 0 4.426.388 7.151 1.214l4.773 1.445 3.501-3.551c9.398-9.505 25.823-9.505 35.221 0l3.501 3.551 4.773-1.445c2.717-.826 4.988-1.214 7.143-1.214 8.836 0 17.069 4.881 21.496 12.742l3.526 4.814 5.591-.793c.793-.107 1.586-.248 2.42-.248 13.659 0 24.774 11.115 24.774 24.774 0 10.017-6.111 19.497-14.732 23.61-16.054-12.404-51.217-23.61-76.106-23.61s-60.053 11.206-76.106 23.61c-8.621-4.113-14.732-13.593-14.732-23.61-.001-13.658 11.115-24.774 24.774-24.774zm8.258 303.112v2.436h-38.086c-16.318 0-30.547-10.752-35.394-26.74-.57-1.866-.842-3.931-.842-6.317 0-7.432 2.568-10.645 6.45-15.5 4.484-5.607 10.067-12.585 10.067-25.806s-5.582-20.199-10.067-25.806c-3.881-4.856-6.45-8.06-6.45-15.484 0-7.416 2.568-10.62 6.45-15.467 4.484-5.599 10.067-12.569 10.067-25.782v-41.29c0-20.174 6.21-39.68 17.524-56.122 5.459 6.97 12.957 12.255 21.653 14.559l4.715 1.247 3.369-3.534c9.266-9.695 44.073-22.214 68.352-22.214s59.086 12.519 68.344 22.214l3.369 3.534 4.715-1.247c8.696-2.304 16.194-7.589 21.653-14.559 11.33 16.434 17.532 35.947 17.532 56.122v41.29c0 12.445 4.947 19.332 9.266 24.774h-25.782v-82.581h-93.721c-12.346 0-24.584-4.079-34.453-11.487l-19.233-14.427-4.311 1.726c-28.226 11.297-46.476 38.243-46.476 68.658v62.885c0 34.304 23.395 63.174 55.04 71.697-8.491 8.522-13.751 20.265-13.751 33.221zm33.032 93.275v-37.409c18.449 15.773 39.242 28.375 61.539 37.409zm198.194-24.774v16.516c0 4.55-3.708 8.258-8.258 8.258h-41.29-2.907c-36.608 0-72.233-9.728-103.399-27.607 14.179-4.534 26.046-14.452 33.164-27.623 18.226 16.351 41.398 26.971 66.923 29.812l11.025 1.222 6.408-12.825c2.238-4.484 8.844-5.558 12.395-2.015l6.004 6.004h11.677c4.55 0 8.258 3.708 8.258 8.258zm-8.259-49.548c9.109 0 16.516-7.408 16.516-16.516v-23.123l16.516-39.639v87.535h-33.032zm165.162 8.258h-16.516v-132.129h16.516zm16.516-148.645h-123.929c0-1.61-.413-3.204-1.33-4.583-1.536-2.296-4.113-3.675-6.871-3.675h-69.847c-1.643-3.229-3.567-5.88-5.459-8.258h207.434v16.516z"/></g></g></svg>