<svg height="512" viewBox="0 0 64 64" width="512" xmlns="http://www.w3.org/2000/svg"><g id="avatar-man-young-account-profile-25" data-name="avatar-man-young-account-profile"><path d="m28 10h8v2h-8z"/><path d="m29 6h6v2h-6z"/><path d="m46.92 37.32-6.07-.82a.856.856 0 0 0 -.3-.33l-2.55-1.71v-2.25a11.029 11.029 0 0 0 4.95-8.21h.05a3.985 3.985 0 0 0 2-7.44v-7.56a5 5 0 0 0 -5-5h-1.69a10.954 10.954 0 0 0 -12.62 0h-1.69a5 5 0 0 0 -5 5v7.56a3.986 3.986 0 0 0 2 7.44h.05a11.029 11.029 0 0 0 4.95 8.21v2.25l-2.55 1.71a.856.856 0 0 0 -.3.33l-6.07.82a7 7 0 0 0 -6.08 6.93v16.75a1 1 0 0 0 1 1h40a1 1 0 0 0 1-1v-16.75a7 7 0 0 0 -6.08-6.93zm-8.13.07-2.24 5.97-3.13-2.5 3.77-4.53zm-6.79 2.05-4-4.8v-1.4a10.906 10.906 0 0 0 8 0v1.4zm13-19.44a2.015 2.015 0 0 1 -2 2v-4a2.006 2.006 0 0 1 2 2zm-6-14h1a3.009 3.009 0 0 1 3 3v6a1 1 0 0 0 -1-1 2.988 2.988 0 0 1 -3-3zm2 13a3.985 3.985 0 0 1 -7.44 2h1.44a1 1 0 0 1 2 0h2a2.993 2.993 0 0 0 -5.84-.93 4.192 4.192 0 0 1 -.16-1.07 4 4 0 0 1 8 0zm-14-8v-5.48a8.984 8.984 0 0 1 10 0v5.48a4.957 4.957 0 0 0 .44 2.02c-.15-.01-.29-.02-.44-.02a6 6 0 0 0 -5 2.69 6 6 0 0 0 -5-2.69c-.15 0-.3.01-.45.02a4.893 4.893 0 0 0 .45-2.02zm-6 11a2.015 2.015 0 0 1 -2-2 2.006 2.006 0 0 1 2-2zm0-7v-6a3.009 3.009 0 0 1 3-3h1v5a3.009 3.009 0 0 1 -3 3 1 1 0 0 0 -1 1zm6 0a4 4 0 0 1 4 4 4.192 4.192 0 0 1 -.16 1.07 2.993 2.993 0 0 0 -5.84.93h2a1 1 0 0 1 2 0h1.44a3.991 3.991 0 1 1 -3.44-6zm-3.98 8.48a5.983 5.983 0 0 0 8.98-1.17 5.983 5.983 0 0 0 8.98 1.17 8.992 8.992 0 0 1 -17.96 0zm3.79 12.85 3.77 4.53-3.13 2.5-2.24-5.97zm-4.81 2.35 1.49-.2 2.57 6.87a1.017 1.017 0 0 0 .67.61.842.842 0 0 0 .27.04 1 1 0 0 0 .62-.22l3.38-2.7v3.92h2v-3.92l3.38 2.7a1 1 0 0 0 .62.22.842.842 0 0 0 .27-.04 1.017 1.017 0 0 0 .67-.61l2.57-6.87 1.49.2v.32a10.016 10.016 0 0 1 -10 10 10 10 0 0 1 -10-10zm29 21.32h-6v-11h-2v11h-22v-11h-2v11h-6v-15.75a5 5 0 0 1 4.34-4.95l2.66-.36v.06a12 12 0 0 0 24 0v-.06l2.66.36a5 5 0 0 1 4.34 4.95z"/><path d="m36.331 26.5-1.732-1a3 3 0 0 1 -5.2 0l-1.732 1a5 5 0 0 0 8.662 0z"/></g></svg>