<?xml version="1.0"?>
<svg xmlns="http://www.w3.org/2000/svg" id="Icons" viewBox="0 0 60 60"><path d="M3,16V44a3,3,0,0,0,3,3H35.941A8.2,8.2,0,0,0,34,52v6a2,2,0,0,0,2,2H58a2,2,0,0,0,2-2V52c0-3.127-2.4-6.4-5.863-8.181a5.522,5.522,0,0,0,.731-1.952l.2-1.206A2.8,2.8,0,0,0,57,38V33.919A9.873,9.873,0,0,0,53,26V16a3,3,0,0,0,3-3V10.828a2.978,2.978,0,0,0-.879-2.121L47.586,1.172A4.024,4.024,0,0,0,44.758,0H11.242A4.024,4.024,0,0,0,8.414,1.172L.879,8.707A2.978,2.978,0,0,0,0,10.828V13A3,3,0,0,0,3,16ZM2,13V11h9v3H3A1,1,0,0,1,2,13Zm33,1V11h8v3Zm-2-3v3H23V11Zm1.72-2L32.387,2h5.078l4.667,7ZM32.613,9H23.387L25.72,2h4.56ZM21.28,9H13.868l4.667-7h5.078ZM21,11v3H13V11Zm0,34H9V23a1,1,0,0,1,1-1H20a1,1,0,0,1,1,1Zm20.261.361c.072.054.14.111.215.161.166.112.341.237.528.368A13.493,13.493,0,0,0,44.982,47.6l-1.67,1.669a.445.445,0,0,1-.624,0L39.67,46.256A10.418,10.418,0,0,1,41.261,45.361Zm11.262.161c.075-.05.144-.108.216-.161a10.514,10.514,0,0,1,1.591.9l-3.018,3.017a.445.445,0,0,1-.624,0L49.018,47.6A13.493,13.493,0,0,0,52,45.89C52.183,45.759,52.358,45.634,52.523,45.522ZM45.535,51l-.448-.673L47,48.414l1.913,1.913L48.465,51Zm.333,2h2.264l.715,5H45.153ZM36,52a6.678,6.678,0,0,1,2.127-4.458l3.146,3.146A2.435,2.435,0,0,0,43,51.4a2.479,2.479,0,0,0,.375-.035l.581.87L43.132,58H36Zm22,0v6H50.868l-.824-5.764.581-.87A2.479,2.479,0,0,0,51,51.4a2.435,2.435,0,0,0,1.727-.713l3.146-3.146A6.678,6.678,0,0,1,58,52ZM54.2,38.8a1,1,0,0,0-.986.835l-.318,1.9a3.517,3.517,0,0,1-1.491,2.326c-.176.119-.364.252-.562.392C49.742,45.033,48.371,46,47,46s-2.742-.967-3.843-1.744c-.2-.14-.386-.273-.563-.392a3.519,3.519,0,0,1-1.49-2.327l-.318-1.9A1,1,0,0,0,39.8,38.8a.8.8,0,0,1,0-1.6,1,1,0,0,0,1-1c0-.68.373-1.288.833-1.353A13.813,13.813,0,0,0,46.986,33a14.075,14.075,0,0,0,5.382,1.848c.459.065.832.673.832,1.353a1,1,0,0,0,1,1,.8.8,0,0,1,0,1.6ZM47,24a9.971,9.971,0,0,0-10,9.919V35H28a1,1,0,0,1-1-1V23a1,1,0,0,1,1-1H46a1,1,0,0,1,1,1Zm8,9.919V35a3.019,3.019,0,0,0-2.35-2.13,12.1,12.1,0,0,1-4.6-1.559,1.946,1.946,0,0,0-2.1,0,12.1,12.1,0,0,1-4.6,1.56A3.019,3.019,0,0,0,39,35V33.919a8,8,0,0,1,16,0Zm-4-9.085a9.957,9.957,0,0,0-2-.634V23a3,3,0,0,0-3-3H28a3,3,0,0,0-3,3V34a3,3,0,0,0,3,3h9v1a2.8,2.8,0,0,0,1.93,2.661l.2,1.2a5.52,5.52,0,0,0,.731,1.953A12.4,12.4,0,0,0,37.995,45H23V23a3,3,0,0,0-3-3H10a3,3,0,0,0-3,3V45H6a1,1,0,0,1-1-1V16H51ZM53,14H45V11h9v2A1,1,0,0,1,53,14ZM46.172,2.586,52.586,9H44.535L39.868,2h4.89A2.015,2.015,0,0,1,46.172,2.586Zm-36.344,0A2.015,2.015,0,0,1,11.242,2h4.89L11.465,9H3.414Z"/></svg>
