<?xml version="1.0"?>
<svg xmlns="http://www.w3.org/2000/svg" id="Layer_1" data-name="Layer 1" viewBox="0 0 512 512"><path d="M511.989,292.673c.005-.2,0-.408-.015-.611a32.158,32.158,0,0,0-27.586-31.027,16.921,16.921,0,0,0-15.917-11.259h-9.964v-5.145a32.89,32.89,0,0,0-32.839-32.868H372.546c-.554,0-1.105.015-1.652.042a73.947,73.947,0,0,0-56.713-26.461h-7.048a6,6,0,0,0-2.415-1.218l-18.727-4.571V159.9a61.55,61.55,0,0,0,20.077-34.876h.771a24.076,24.076,0,0,0,10.447-45.769V56.212a33.615,33.615,0,0,0-33.578-33.576h-33.9c-1.517,0-3-.036-4.44-.07-7.716-.182-15.657-.37-23.268,4.883a26.158,26.158,0,0,0-14.536-4.813h-.087c-19.121,0-33.538,14.438-33.538,33.576V79.271a24.065,24.065,0,0,0,10.446,45.752h.744A61.536,61.536,0,0,0,205.2,159.891v18.934c-.054.012-.107.016-.161.029l-21.6,5.272a6,6,0,0,0-2.415,1.218h-3.986a74.367,74.367,0,0,0-74.283,74.282q0,8.655-.014,17.291,0,.383,0,.766l-1.694-2.874a6.012,6.012,0,0,0-5.918-2.9,109.178,109.178,0,0,0-32.87,9.539,5.994,5.994,0,0,0-3.439,5.368l-.114,12.3c-.037,4.081-2.618,8.577-6.735,11.733-4.064,3.114-8.833,4.369-12.762,3.35l-10.8-2.779a6,6,0,0,0-6.244,2.147A110.028,110.028,0,0,0,5.323,344.742a6,6,0,0,0,1.392,6.169c9.263,9.412,13.608,16.875,12.912,22.182-.144,1.1-.585,4.469-6.748,8.1l-9.921,5.838a6,6,0,0,0-2.916,5.849A110.188,110.188,0,0,0,8.4,424.061a5.994,5.994,0,0,0,5.445,3.617l11.526.113A13.278,13.278,0,0,1,35.75,433.2a13.444,13.444,0,0,1,2.6,11.562L35.172,457.1a5.994,5.994,0,0,0,1.888,6.033A110.317,110.317,0,0,0,67.242,481.68a5.994,5.994,0,0,0,6.482-1.267l7.943-7.8c2.882-2.839,7.635-4.133,12.711-3.467,5.151.677,9.635,3.282,11.7,6.8l6.235,10.6a6,6,0,0,0,5.167,2.956c.171,0,.344-.007.516-.022a109.6,109.6,0,0,0,33.252-8.216,6,6,0,0,0,3.665-5.478L155,464.6c.036-4.082,2.866-8.774,7.386-12.246,4.579-3.519,10.1-5.132,14.064-4.111l11.309,2.918a5.984,5.984,0,0,0,6.167-2.043A110.682,110.682,0,0,0,210.8,419.955a5.992,5.992,0,0,0-1.307-6.387l-8.216-8.359a14.567,14.567,0,0,1-3.506-8.457h33.805l9.035,10.992a6,6,0,0,0,4.632,2.189h.031a6,6,0,0,0,4.64-2.237l8.8-10.944h27.6a32.328,32.328,0,0,0,32.177,29.537H479.725A32.308,32.308,0,0,0,512,394.017V292.99C512,292.883,511.99,292.779,511.989,292.673ZM307.166,89.706q1.188.054,2.395.054h1.73c.022,0,.044,0,.066,0a12.228,12.228,0,0,1,7.572,11.186,12.1,12.1,0,0,1-11.763,12.073ZM184.029,113.015a12.074,12.074,0,0,1-4.2-23.26c.033,0,.065.005.1.005a38.9,38.9,0,0,0,4.1-.235ZM484.077,273.184a20.543,20.543,0,0,1,15.837,17.974c-12.3,22.313-45.281,39.059-83.9,42.844v-5.551a16.909,16.909,0,0,0-33.817,0V334c-38.636-3.785-71.63-20.533-83.93-42.849a20.321,20.321,0,0,1,15.865-17.98,16.933,16.933,0,0,0,15.61,10.42h29a16.922,16.922,0,0,0,15.791-10.913h49.149a16.922,16.922,0,0,0,15.791,10.913h29A16.933,16.933,0,0,0,484.077,273.184Zm-80.051,55.267v25.54a4.919,4.919,0,0,1-9.837,0v-25.54a4.919,4.919,0,0,1,9.837,0Zm-79.2-61.766a4.924,4.924,0,0,1,4.918-4.919h29a4.919,4.919,0,1,1,0,9.837h-29A4.923,4.923,0,0,1,324.826,266.685Zm143.645-4.919a4.919,4.919,0,0,1,0,9.837h-29a4.919,4.919,0,1,1,0-9.837Zm-21.954-17.135v5.145h-7.044a16.921,16.921,0,0,0-15.791,10.914H374.533a16.922,16.922,0,0,0-15.791-10.914h-7.073v-5.145a20.9,20.9,0,0,1,20.877-20.878h53.122A20.887,20.887,0,0,1,446.517,244.631ZM185.927,56.212c0-12.508,9.067-21.586,21.558-21.586h.075c3.78,0,7.951,2.366,10.126,4.713a6,6,0,0,0,8.644.157c5.011-5.029,9.877-5.154,18.752-4.943,1.536.037,3.109.073,4.724.073h33.9A21.611,21.611,0,0,1,305.3,56.212V77.546q-1.407-.152-2.765-.409c-.124-.029-.249-.053-.376-.074a33.748,33.748,0,0,1-17.608-9.67,27.562,27.562,0,0,0-12.226-7.068L233.438,49.606A28.235,28.235,0,0,0,226,48.591a27.847,27.847,0,0,0-24.738,15.833,22.284,22.284,0,0,1-15.33,12.666ZM196.281,118.6c-.007-.093-.012-.185-.023-.277-.154-1.588-.239-3.2-.239-4.824V86.108a34.491,34.491,0,0,0,16.113-16.634,15.248,15.248,0,0,1,4.688-5.689,14.778,14.778,0,0,1,13.449-2.616l38.88,10.72a15.581,15.581,0,0,1,6.919,3.982,46.348,46.348,0,0,0,19.107,11.761V113.5c0,1.627-.084,3.235-.238,4.822-.011.093-.017.187-.023.281A49.532,49.532,0,0,1,276.7,152.065a6.05,6.05,0,0,0-.735.578,49.431,49.431,0,0,1-60.748-.024,6.041,6.041,0,0,0-.684-.538A49.52,49.52,0,0,1,196.281,118.6Zm20.21,67.191a14.319,14.319,0,0,0,.7-4.43v-13.28a61.368,61.368,0,0,0,56.806.007v13.273a13.543,13.543,0,0,0,.173,2.112l-30.092,27.87ZM255.6,244.224l-10.5,11.71-11.746-12.726,10.733-13.888Zm-50.843-52.957,31.228,28.922-17.057,22.069-25.207-48.3ZM186.934,438.56l-7.49-1.933c-7.633-1.966-16.739.358-24.361,6.213-7.491,5.754-12,13.847-12.072,21.656l-.054,7.168a97.586,97.586,0,0,1-22.261,5.477l-4.279-7.276c-3.959-6.729-11.614-11.441-20.475-12.606a31.452,31.452,0,0,0-4.1-.269c-7.216,0-13.96,2.523-18.583,7.074l-5.053,4.964a98.248,98.248,0,0,1-20.475-12.62l2.227-8.653a25.343,25.343,0,0,0-4.706-21.864A25.167,25.167,0,0,0,25.475,415.8l-7.529-.074a98.189,98.189,0,0,1-5.475-20.377l6.5-3.822c7.436-4.386,11.659-10.065,12.551-16.878,1.441-11-6.4-21.628-13.612-29.388a97.975,97.975,0,0,1,11.43-21.224l6.879,1.77c7.465,1.933,16.084-.1,23.055-5.444,7.087-5.433,11.359-13.335,11.431-21.139l.078-8.458a97.136,97.136,0,0,1,21.989-6.4l3.648,6.19a24.522,24.522,0,0,0,9.123,8.694,5.944,5.944,0,0,0,.535.3,33.881,33.881,0,0,0,11.722,3.742c9.466,1.251,18.475-1.3,24.105-6.821l5.514-5.421a98.269,98.269,0,0,1,19.434,11.217l-1.93,7.5c-1.978,7.6.323,16.679,6.155,24.294,5.762,7.524,13.877,12.057,21.7,12.125l7.171.072a98.525,98.525,0,0,1,4.882,18.232l-6.166,3.645c-6.735,3.973-11.492,11.943-12.727,21.32-.021.159-.032.315-.051.473-.018.131-.032.262-.042.4-.992,9.195,1.545,17.849,6.885,23.293l5.441,5.534A98.688,98.688,0,0,1,186.934,438.56ZM220.6,383.4l1.124,1.367H199.564a13.712,13.712,0,0,1,5.189-6.306l9.638-5.7a6,6,0,0,0,2.9-5.918,110.524,110.524,0,0,0-7.734-28.864,6,6,0,0,0-5.467-3.672l-11.2-.113c-4.1-.036-8.81-2.881-12.291-7.426-3.5-4.565-5.093-10.052-4.066-14l2.92-11.339a6,6,0,0,0-2.055-6.172A110.345,110.345,0,0,0,148.2,278.414a5.99,5.99,0,0,0-6.369,1.315l-8.329,8.189c-2.968,2.911-8.379,4.246-14.13,3.488a23.558,23.558,0,0,1-4.643-1.1q0-6.689.011-13.378.01-8.646.014-17.306a62.363,62.363,0,0,1,62.292-62.292h4.914l30.673,58.773a6,6,0,0,0,4.787,3.2c.176.016.353.023.53.023A6,6,0,0,0,222.689,257l3.222-4.169,1.237,1.34-7.9,125.04A6,6,0,0,0,220.6,383.4Zm30.633,3.534-.033.041-6,7.465-6.1-7.423c-.034-.043-.069-.085-.1-.127l-7.625-9.277,7.03-111.256,2.359,2.556a5.994,5.994,0,0,0,4.406,1.929h.043a6,6,0,0,0,4.42-1.992l2.049-2.284L258.7,377.644Zm.946-166.74,31.229-28.922,11.035,2.693-25.207,48.3Zm10.716,33.86.161-.179L265.472,257a6,6,0,0,0,4.743,2.329c.177,0,.354-.007.531-.023a6,6,0,0,0,4.786-3.2l30.674-58.773h7.975a61.9,61.9,0,0,1,43.613,17.939,32.9,32.9,0,0,0-18.115,29.358v5.145h-9.935a16.922,16.922,0,0,0-15.918,11.261,32.333,32.333,0,0,0-27.615,31.026,5.9,5.9,0,0,0-.014.61c0,.106-.008.21-.008.317v91.772H268.362l1.139-1.416a5.989,5.989,0,0,0,1.313-4.137ZM500.006,394.017A20.3,20.3,0,0,1,479.725,414.3H318.49a20.32,20.32,0,0,1-20.311-20.282V310.949c18.037,18.859,48.687,31.9,84.02,35.1v7.943a16.909,16.909,0,1,0,33.817,0v-7.943c35.317-3.2,65.957-16.24,83.99-35.1ZM141.225,324.23a65.084,65.084,0,1,0,30.325,39.52A64.663,64.663,0,0,0,141.225,324.23Zm-18.8,107.649A53.094,53.094,0,1,1,94.942,329.31h0a53.37,53.37,0,0,1,13.827-1.832,53.107,53.107,0,0,1,13.655,104.4Z"/></svg>
